<svg xmlns="http://www.w3.org/2000/svg" width="1254" height="1254" viewBox="0 0 1254 1254">
  <path d="M 595 214 L 594 215 L 585 215 L 584 216 L 577 216 L 576 217 L 570 217 L 569 218 L 564 218 L 563 219 L 558 219 L 557 220 L 552 220 L 551 221 L 546 221 L 545 222 L 542 222 L 541 223 L 537 223 L 536 224 L 533 224 L 532 225 L 529 225 L 528 226 L 526 226 L 525 227 L 522 227 L 521 228 L 517 228 L 516 229 L 514 229 L 513 230 L 511 230 L 510 231 L 508 231 L 507 232 L 504 232 L 503 233 L 501 233 L 498 235 L 496 235 L 495 236 L 493 236 L 492 237 L 490 237 L 487 239 L 485 239 L 484 240 L 482 240 L 477 243 L 475 243 L 472 245 L 470 245 L 467 247 L 465 247 L 464 248 L 463 248 L 462 249 L 461 249 L 460 250 L 459 250 L 458 251 L 457 251 L 456 252 L 455 252 L 454 253 L 453 253 L 452 254 L 451 254 L 450 255 L 449 255 L 448 256 L 447 256 L 446 257 L 445 257 L 444 258 L 443 258 L 442 259 L 441 259 L 440 260 L 439 260 L 438 261 L 437 261 L 436 262 L 433 263 L 431 265 L 430 265 L 429 266 L 428 266 L 427 267 L 424 268 L 422 270 L 421 270 L 419 272 L 416 273 L 414 275 L 413 275 L 411 277 L 410 277 L 408 279 L 407 279 L 402 283 L 401 283 L 400 284 L 399 284 L 397 286 L 396 286 L 393 289 L 392 289 L 389 292 L 388 292 L 385 295 L 384 295 L 379 300 L 378 300 L 375 303 L 374 303 L 369 308 L 368 308 L 362 314 L 361 314 L 329 346 L 329 347 L 321 355 L 321 356 L 317 360 L 317 361 L 313 365 L 313 366 L 305 375 L 305 376 L 303 378 L 303 379 L 301 381 L 301 382 L 295 389 L 294 392 L 292 394 L 292 395 L 289 398 L 289 399 L 288 400 L 287 403 L 283 408 L 283 409 L 282 410 L 282 411 L 280 413 L 280 414 L 279 415 L 278 418 L 276 420 L 276 421 L 275 422 L 275 423 L 274 424 L 274 425 L 273 426 L 273 427 L 272 428 L 272 429 L 271 430 L 271 431 L 270 432 L 270 433 L 269 434 L 269 435 L 268 436 L 268 437 L 267 438 L 267 439 L 266 440 L 266 441 L 263 446 L 263 448 L 262 449 L 262 450 L 259 455 L 259 457 L 258 458 L 258 459 L 256 462 L 256 464 L 253 469 L 253 471 L 252 472 L 252 474 L 251 475 L 251 477 L 249 480 L 249 482 L 248 483 L 248 485 L 247 486 L 247 488 L 246 489 L 246 491 L 245 492 L 245 494 L 244 495 L 244 497 L 243 498 L 243 501 L 242 502 L 242 504 L 241 505 L 241 508 L 240 509 L 240 511 L 239 512 L 239 515 L 238 516 L 238 519 L 237 520 L 237 524 L 236 525 L 236 529 L 235 530 L 235 534 L 234 535 L 234 539 L 233 540 L 233 544 L 232 545 L 232 549 L 231 550 L 231 558 L 230 559 L 230 565 L 229 566 L 229 572 L 228 573 L 228 583 L 227 584 L 227 643 L 228 644 L 228 653 L 229 654 L 229 661 L 230 662 L 230 668 L 231 669 L 231 675 L 232 676 L 232 680 L 233 681 L 233 686 L 234 687 L 234 691 L 235 692 L 235 696 L 236 697 L 236 701 L 237 702 L 237 705 L 238 706 L 238 709 L 239 710 L 239 713 L 240 714 L 240 716 L 241 717 L 241 721 L 243 724 L 243 727 L 244 728 L 244 730 L 245 731 L 245 733 L 246 734 L 246 736 L 247 737 L 247 739 L 248 740 L 248 742 L 249 743 L 249 745 L 250 746 L 250 748 L 251 749 L 251 751 L 252 752 L 252 754 L 254 757 L 254 759 L 255 760 L 255 761 L 257 764 L 257 766 L 258 767 L 258 768 L 261 773 L 261 775 L 263 778 L 263 780 L 264 781 L 264 782 L 265 783 L 265 784 L 266 785 L 266 786 L 267 787 L 267 788 L 268 789 L 268 790 L 269 791 L 269 792 L 270 793 L 270 794 L 271 795 L 271 796 L 272 797 L 272 798 L 273 799 L 274 802 L 276 804 L 277 807 L 279 809 L 279 811 L 281 813 L 282 816 L 286 821 L 287 824 L 291 829 L 292 832 L 294 834 L 294 835 L 296 837 L 296 838 L 299 841 L 299 842 L 301 844 L 301 845 L 304 848 L 304 849 L 307 852 L 307 853 L 311 857 L 311 858 L 319 867 L 319 868 L 325 874 L 325 875 L 332 882 L 332 883 L 354 905 L 355 905 L 362 912 L 363 912 L 376 924 L 377 924 L 381 928 L 382 928 L 389 934 L 390 934 L 392 936 L 393 936 L 396 939 L 397 939 L 399 941 L 400 941 L 402 943 L 403 943 L 405 945 L 406 945 L 411 949 L 414 950 L 417 953 L 418 953 L 419 954 L 420 954 L 421 955 L 424 956 L 429 960 L 430 960 L 431 961 L 432 961 L 433 962 L 434 962 L 435 963 L 438 964 L 440 966 L 441 966 L 442 967 L 443 967 L 444 968 L 445 968 L 446 969 L 447 969 L 448 970 L 449 970 L 450 971 L 451 971 L 452 972 L 453 972 L 454 973 L 455 973 L 456 974 L 457 974 L 458 975 L 459 975 L 464 978 L 466 978 L 469 980 L 471 980 L 472 981 L 473 981 L 476 983 L 478 983 L 481 985 L 483 985 L 484 986 L 486 986 L 487 987 L 488 987 L 489 988 L 491 988 L 494 990 L 496 990 L 497 991 L 499 991 L 500 992 L 502 992 L 503 993 L 505 993 L 506 994 L 508 994 L 509 995 L 511 995 L 512 996 L 515 996 L 516 997 L 518 997 L 519 998 L 522 998 L 523 999 L 525 999 L 526 1000 L 529 1000 L 530 1001 L 533 1001 L 534 1002 L 538 1002 L 539 1003 L 542 1003 L 543 1004 L 548 1004 L 549 1005 L 552 1005 L 553 1006 L 558 1006 L 559 1007 L 564 1007 L 565 1008 L 571 1008 L 572 1009 L 578 1009 L 579 1010 L 587 1010 L 588 1011 L 599 1011 L 600 1012 L 653 1012 L 654 1011 L 667 1011 L 668 1010 L 675 1010 L 676 1009 L 682 1009 L 683 1008 L 687 1008 L 688 1007 L 694 1007 L 695 1006 L 700 1006 L 701 1005 L 704 1005 L 705 1004 L 710 1004 L 711 1003 L 714 1003 L 715 1002 L 718 1002 L 719 1001 L 722 1001 L 723 1000 L 726 1000 L 727 999 L 730 999 L 731 998 L 734 998 L 737 996 L 740 996 L 741 995 L 744 995 L 745 994 L 747 994 L 748 993 L 750 993 L 753 991 L 755 991 L 756 990 L 758 990 L 759 989 L 761 989 L 762 988 L 764 988 L 767 986 L 769 986 L 770 985 L 771 985 L 772 984 L 774 984 L 777 982 L 779 982 L 780 981 L 781 981 L 784 979 L 786 979 L 787 978 L 788 978 L 789 977 L 790 977 L 795 974 L 797 974 L 799 972 L 801 972 L 807 968 L 809 968 L 810 967 L 811 967 L 813 965 L 814 965 L 815 964 L 816 964 L 817 963 L 820 962 L 822 960 L 823 960 L 824 959 L 827 958 L 829 956 L 830 956 L 831 955 L 832 955 L 834 953 L 837 952 L 842 948 L 845 947 L 847 945 L 848 945 L 851 942 L 852 942 L 854 940 L 855 940 L 858 937 L 859 937 L 861 935 L 862 935 L 869 929 L 870 929 L 874 925 L 875 925 L 879 921 L 880 921 L 885 916 L 886 916 L 898 904 L 899 904 L 916 887 L 916 886 L 927 875 L 927 874 L 931 870 L 931 869 L 937 863 L 937 862 L 940 859 L 940 858 L 944 854 L 944 853 L 946 851 L 946 850 L 952 843 L 952 842 L 954 840 L 954 839 L 956 837 L 956 836 L 958 834 L 958 833 L 962 828 L 963 825 L 967 820 L 967 819 L 968 818 L 969 815 L 971 813 L 972 810 L 974 808 L 974 807 L 975 806 L 975 805 L 976 804 L 977 801 L 979 799 L 979 797 L 981 795 L 981 793 L 983 791 L 983 790 L 984 789 L 984 788 L 987 783 L 987 781 L 988 780 L 988 779 L 989 778 L 989 777 L 992 772 L 992 770 L 994 767 L 994 765 L 997 760 L 997 758 L 998 757 L 998 755 L 999 754 L 999 752 L 1001 749 L 1001 747 L 1002 746 L 1002 744 L 1003 743 L 1003 741 L 1004 740 L 1004 738 L 1005 737 L 1005 735 L 1006 734 L 1006 732 L 1007 731 L 1007 729 L 1008 728 L 1008 726 L 1009 725 L 1009 723 L 1010 722 L 1010 718 L 1011 717 L 1011 715 L 1012 714 L 1012 711 L 1013 710 L 1013 707 L 1014 706 L 1014 703 L 1015 702 L 1015 698 L 1016 697 L 1016 693 L 1017 692 L 1017 688 L 1018 687 L 1018 682 L 1019 681 L 1019 676 L 1020 675 L 1020 670 L 1021 669 L 1021 663 L 1022 662 L 1022 653 L 1023 652 L 1023 640 L 1024 639 L 1024 619 L 1025 618 L 1025 617 L 1024 616 L 1024 611 L 1025 610 L 1025 607 L 1024 606 L 1024 584 L 1023 583 L 1023 574 L 1022 573 L 1022 564 L 1021 563 L 1021 556 L 1020 555 L 1020 550 L 1019 549 L 1019 544 L 1018 543 L 1018 538 L 1017 537 L 1017 532 L 1016 531 L 1016 529 L 1015 528 L 1015 524 L 1014 523 L 1014 520 L 1013 519 L 1013 516 L 1012 515 L 1012 512 L 1011 511 L 1011 509 L 1010 508 L 1010 505 L 1009 504 L 1009 501 L 1008 500 L 1008 498 L 1007 497 L 1007 494 L 1006 493 L 1006 491 L 1005 490 L 1005 488 L 1004 487 L 1004 485 L 1002 482 L 1002 479 L 1001 478 L 1001 476 L 998 471 L 998 469 L 997 468 L 997 466 L 996 465 L 996 464 L 995 463 L 995 461 L 993 458 L 993 456 L 992 455 L 992 454 L 991 453 L 991 452 L 990 451 L 990 450 L 987 445 L 987 443 L 986 442 L 986 441 L 985 440 L 984 437 L 982 435 L 982 433 L 981 432 L 981 431 L 979 429 L 979 428 L 978 427 L 978 425 L 977 424 L 977 423 L 975 421 L 975 420 L 974 419 L 973 416 L 971 414 L 970 411 L 968 409 L 968 408 L 967 407 L 966 404 L 962 399 L 961 396 L 959 394 L 959 393 L 957 391 L 957 390 L 954 387 L 953 384 L 947 377 L 947 376 L 945 374 L 945 373 L 942 370 L 942 369 L 938 365 L 938 364 L 935 361 L 935 360 L 929 354 L 929 353 L 923 347 L 923 346 L 891 314 L 890 314 L 883 307 L 882 307 L 877 302 L 876 302 L 874 300 L 873 300 L 864 292 L 863 292 L 861 290 L 860 290 L 857 287 L 856 287 L 854 285 L 853 285 L 851 283 L 850 283 L 847 280 L 846 280 L 841 276 L 838 275 L 836 273 L 833 272 L 828 268 L 827 268 L 826 267 L 823 266 L 821 264 L 820 264 L 819 263 L 818 263 L 817 262 L 814 261 L 812 259 L 811 259 L 806 256 L 804 256 L 802 254 L 800 254 L 799 253 L 798 253 L 797 252 L 796 252 L 795 251 L 794 251 L 793 250 L 792 250 L 791 249 L 790 249 L 785 246 L 783 246 L 778 243 L 776 243 L 775 242 L 773 242 L 772 241 L 771 241 L 770 240 L 768 240 L 763 237 L 761 237 L 760 236 L 757 236 L 756 235 L 754 235 L 751 233 L 749 233 L 748 232 L 746 232 L 745 231 L 743 231 L 742 230 L 739 230 L 738 229 L 736 229 L 735 228 L 733 228 L 732 227 L 729 227 L 728 226 L 724 226 L 723 225 L 720 225 L 719 224 L 717 224 L 716 223 L 712 223 L 711 222 L 706 222 L 705 221 L 702 221 L 701 220 L 698 220 L 697 219 L 690 219 L 689 218 L 686 218 L 685 217 L 677 217 L 676 216 L 669 216 L 668 215 L 659 215 L 658 214 L 643 214 L 642 213 L 612 213 L 611 214 Z M 606 228 L 649 228 L 650 229 L 663 229 L 664 230 L 671 230 L 672 231 L 678 231 L 679 232 L 687 232 L 688 233 L 692 233 L 693 234 L 697 234 L 698 235 L 702 235 L 703 236 L 707 236 L 708 237 L 712 237 L 713 238 L 716 238 L 717 239 L 720 239 L 721 240 L 724 240 L 725 241 L 728 241 L 729 242 L 731 242 L 732 243 L 734 243 L 735 244 L 738 244 L 739 245 L 741 245 L 742 246 L 744 246 L 745 247 L 747 247 L 748 248 L 750 248 L 751 249 L 753 249 L 754 250 L 756 250 L 761 253 L 763 253 L 764 254 L 766 254 L 767 255 L 768 255 L 769 256 L 771 256 L 772 257 L 773 257 L 778 260 L 780 260 L 781 261 L 782 261 L 787 264 L 789 264 L 790 265 L 791 265 L 792 266 L 793 266 L 794 267 L 795 267 L 796 268 L 797 268 L 798 269 L 801 270 L 803 272 L 804 272 L 805 273 L 806 273 L 807 274 L 808 274 L 809 275 L 810 275 L 811 276 L 814 277 L 816 279 L 817 279 L 818 280 L 821 281 L 823 283 L 824 283 L 826 285 L 829 286 L 831 288 L 832 288 L 834 290 L 835 290 L 837 292 L 838 292 L 840 294 L 841 294 L 843 296 L 844 296 L 846 298 L 847 298 L 850 301 L 851 301 L 853 303 L 854 303 L 857 306 L 858 306 L 861 309 L 862 309 L 866 313 L 867 313 L 873 319 L 874 319 L 879 324 L 880 324 L 892 336 L 893 336 L 898 341 L 898 342 L 912 356 L 912 357 L 919 364 L 919 365 L 925 371 L 925 372 L 929 376 L 929 377 L 931 379 L 931 380 L 934 383 L 934 384 L 940 391 L 940 392 L 942 394 L 942 395 L 944 397 L 944 398 L 946 400 L 946 401 L 950 406 L 951 409 L 955 414 L 955 415 L 956 416 L 956 417 L 958 419 L 958 420 L 959 421 L 960 424 L 962 426 L 962 427 L 963 428 L 963 429 L 964 430 L 964 431 L 965 432 L 965 433 L 966 434 L 966 435 L 967 436 L 967 437 L 968 438 L 968 439 L 969 440 L 969 441 L 970 442 L 970 443 L 971 444 L 971 445 L 972 446 L 972 447 L 973 448 L 973 449 L 974 450 L 974 451 L 977 456 L 977 458 L 978 459 L 978 460 L 981 465 L 981 467 L 982 468 L 982 469 L 983 470 L 983 472 L 985 475 L 985 477 L 986 478 L 986 480 L 988 483 L 988 485 L 989 486 L 989 488 L 990 489 L 990 491 L 991 492 L 991 495 L 993 498 L 993 501 L 994 502 L 994 504 L 995 505 L 995 507 L 996 508 L 996 511 L 997 512 L 997 515 L 998 516 L 998 518 L 999 519 L 999 523 L 1000 524 L 1000 527 L 1001 528 L 1001 531 L 1002 532 L 1002 536 L 1003 537 L 1003 541 L 1004 542 L 1004 546 L 1005 547 L 1005 554 L 1006 555 L 1006 558 L 1007 559 L 1007 568 L 1008 569 L 1008 577 L 1009 578 L 1009 592 L 1010 593 L 1010 630 L 1009 631 L 1009 648 L 1008 649 L 1008 657 L 1007 658 L 1007 665 L 1006 666 L 1006 671 L 1005 672 L 1005 677 L 1004 678 L 1004 683 L 1003 684 L 1003 689 L 1002 690 L 1002 693 L 1001 694 L 1001 697 L 1000 698 L 1000 701 L 999 702 L 999 706 L 998 707 L 998 710 L 997 711 L 997 714 L 996 715 L 996 717 L 995 718 L 995 720 L 994 721 L 994 724 L 993 725 L 993 728 L 992 729 L 992 731 L 991 732 L 991 734 L 989 737 L 989 739 L 988 740 L 988 742 L 987 743 L 987 745 L 985 748 L 985 750 L 984 751 L 984 753 L 983 754 L 983 756 L 982 757 L 982 758 L 981 759 L 981 760 L 978 765 L 978 767 L 975 772 L 975 774 L 974 775 L 974 776 L 973 777 L 973 778 L 972 779 L 972 780 L 971 781 L 971 782 L 970 783 L 970 784 L 969 785 L 969 786 L 968 787 L 968 788 L 967 789 L 966 792 L 964 794 L 964 795 L 963 796 L 963 797 L 962 798 L 961 801 L 959 803 L 959 804 L 958 805 L 957 808 L 955 810 L 954 813 L 950 818 L 949 821 L 947 823 L 947 824 L 945 826 L 945 827 L 943 829 L 943 830 L 941 832 L 941 833 L 938 836 L 938 837 L 936 839 L 936 840 L 932 844 L 932 845 L 929 848 L 929 849 L 926 852 L 926 853 L 921 858 L 921 859 L 915 865 L 915 866 L 907 874 L 907 875 L 886 896 L 885 896 L 877 904 L 876 904 L 870 910 L 869 910 L 860 918 L 859 918 L 856 921 L 855 921 L 853 923 L 852 923 L 845 929 L 842 930 L 840 932 L 839 932 L 837 934 L 836 934 L 834 936 L 833 936 L 831 938 L 830 938 L 825 942 L 824 942 L 823 943 L 820 944 L 818 946 L 815 947 L 813 949 L 812 949 L 811 950 L 810 950 L 809 951 L 808 951 L 807 952 L 806 952 L 805 953 L 804 953 L 803 954 L 802 954 L 801 955 L 800 955 L 799 956 L 796 957 L 794 959 L 792 959 L 791 960 L 790 960 L 789 961 L 788 961 L 787 962 L 786 962 L 781 965 L 779 965 L 778 966 L 777 966 L 772 969 L 770 969 L 769 970 L 768 970 L 767 971 L 765 971 L 762 973 L 760 973 L 759 974 L 757 974 L 754 976 L 752 976 L 751 977 L 749 977 L 748 978 L 746 978 L 745 979 L 743 979 L 742 980 L 740 980 L 739 981 L 737 981 L 736 982 L 734 982 L 733 983 L 730 983 L 729 984 L 726 984 L 725 985 L 722 985 L 721 986 L 718 986 L 717 987 L 713 987 L 712 988 L 709 988 L 708 989 L 705 989 L 704 990 L 701 990 L 700 991 L 696 991 L 695 992 L 690 992 L 689 993 L 684 993 L 683 994 L 677 994 L 676 995 L 668 995 L 667 996 L 658 996 L 657 997 L 638 997 L 637 998 L 614 998 L 613 997 L 598 997 L 597 996 L 584 996 L 583 995 L 577 995 L 576 994 L 571 994 L 570 993 L 564 993 L 563 992 L 558 992 L 557 991 L 552 991 L 551 990 L 548 990 L 547 989 L 543 989 L 542 988 L 539 988 L 538 987 L 535 987 L 534 986 L 531 986 L 530 985 L 527 985 L 526 984 L 524 984 L 523 983 L 520 983 L 519 982 L 517 982 L 516 981 L 514 981 L 513 980 L 510 980 L 509 979 L 507 979 L 506 978 L 504 978 L 501 976 L 498 976 L 497 975 L 494 975 L 492 973 L 490 973 L 487 971 L 485 971 L 480 968 L 478 968 L 473 965 L 471 965 L 469 963 L 467 963 L 466 962 L 465 962 L 460 959 L 458 959 L 457 958 L 454 957 L 452 955 L 449 954 L 447 952 L 445 952 L 444 951 L 443 951 L 441 949 L 440 949 L 439 948 L 438 948 L 437 947 L 434 946 L 432 944 L 429 943 L 427 941 L 424 940 L 419 936 L 416 935 L 414 933 L 413 933 L 411 931 L 410 931 L 408 929 L 407 929 L 404 926 L 403 926 L 400 923 L 399 923 L 396 920 L 395 920 L 392 917 L 391 917 L 387 913 L 386 913 L 377 905 L 376 905 L 369 898 L 368 898 L 341 871 L 341 870 L 334 863 L 334 862 L 328 856 L 328 855 L 320 846 L 320 845 L 318 843 L 318 842 L 312 835 L 312 834 L 310 832 L 310 831 L 308 829 L 308 828 L 305 825 L 305 824 L 303 822 L 302 819 L 300 817 L 300 816 L 296 811 L 296 810 L 295 809 L 294 806 L 292 804 L 291 801 L 289 799 L 289 798 L 288 797 L 288 796 L 287 795 L 287 794 L 286 793 L 286 792 L 285 791 L 284 788 L 282 786 L 282 785 L 279 780 L 279 778 L 278 777 L 278 776 L 277 775 L 277 774 L 276 773 L 276 772 L 275 771 L 275 770 L 272 765 L 272 763 L 270 760 L 270 758 L 269 757 L 269 755 L 266 750 L 266 748 L 265 747 L 265 745 L 264 744 L 264 742 L 263 741 L 263 739 L 262 738 L 262 736 L 260 733 L 260 731 L 259 730 L 259 727 L 258 726 L 258 724 L 257 723 L 257 721 L 256 720 L 256 718 L 255 717 L 255 714 L 254 713 L 254 711 L 253 710 L 253 707 L 252 706 L 252 703 L 251 702 L 251 699 L 250 698 L 250 694 L 249 693 L 249 688 L 248 687 L 248 684 L 247 683 L 247 678 L 246 677 L 246 672 L 245 671 L 245 664 L 244 663 L 244 657 L 243 656 L 243 648 L 242 647 L 242 632 L 241 631 L 241 594 L 242 593 L 242 579 L 243 578 L 243 570 L 244 569 L 244 562 L 245 561 L 245 555 L 246 554 L 246 549 L 247 548 L 247 544 L 248 543 L 248 538 L 249 537 L 249 533 L 250 532 L 250 529 L 251 528 L 251 525 L 252 524 L 252 521 L 253 520 L 253 517 L 254 516 L 254 514 L 255 513 L 255 510 L 256 509 L 256 506 L 257 505 L 257 502 L 258 501 L 258 499 L 259 498 L 259 496 L 260 495 L 260 493 L 261 492 L 261 490 L 262 489 L 262 487 L 263 486 L 263 484 L 265 481 L 265 479 L 266 478 L 266 476 L 268 473 L 268 471 L 270 468 L 270 466 L 273 461 L 273 459 L 274 458 L 274 457 L 275 456 L 275 455 L 276 454 L 276 453 L 277 452 L 277 451 L 278 450 L 278 449 L 281 444 L 281 442 L 282 441 L 283 438 L 285 436 L 285 435 L 286 434 L 286 433 L 287 432 L 287 431 L 288 430 L 289 427 L 291 425 L 292 422 L 294 420 L 294 419 L 295 418 L 296 415 L 298 413 L 299 410 L 301 408 L 301 407 L 303 405 L 303 404 L 305 402 L 305 401 L 307 399 L 307 398 L 309 396 L 309 395 L 311 393 L 311 392 L 314 389 L 314 388 L 317 385 L 317 384 L 320 381 L 320 380 L 324 376 L 324 375 L 328 371 L 328 370 L 333 365 L 333 364 L 339 358 L 339 357 L 348 348 L 348 347 L 350 345 L 351 345 L 353 343 L 353 342 L 357 338 L 358 338 L 371 325 L 372 325 L 379 318 L 380 318 L 385 313 L 386 313 L 393 307 L 394 307 L 396 305 L 397 305 L 400 302 L 401 302 L 405 298 L 408 297 L 411 294 L 412 294 L 414 292 L 415 292 L 420 288 L 423 287 L 428 283 L 429 283 L 430 282 L 433 281 L 435 279 L 436 279 L 437 278 L 440 277 L 442 275 L 443 275 L 444 274 L 445 274 L 446 273 L 447 273 L 448 272 L 449 272 L 450 271 L 451 271 L 452 270 L 453 270 L 454 269 L 455 269 L 456 268 L 457 268 L 458 267 L 459 267 L 464 264 L 466 264 L 467 263 L 468 263 L 469 262 L 470 262 L 475 259 L 477 259 L 480 257 L 482 257 L 483 256 L 485 256 L 490 253 L 492 253 L 493 252 L 494 252 L 495 251 L 497 251 L 500 249 L 502 249 L 503 248 L 506 248 L 509 246 L 512 246 L 513 245 L 515 245 L 516 244 L 519 244 L 520 243 L 522 243 L 523 242 L 526 242 L 527 241 L 530 241 L 531 240 L 534 240 L 535 239 L 537 239 L 538 238 L 542 238 L 543 237 L 547 237 L 548 236 L 552 236 L 553 235 L 557 235 L 558 234 L 563 234 L 564 233 L 569 233 L 570 232 L 576 232 L 577 231 L 583 231 L 584 230 L 592 230 L 593 229 L 605 229 Z M 427 469 L 427 470 L 426 471 L 426 472 L 423 477 L 423 479 L 422 480 L 422 482 L 421 483 L 421 485 L 420 486 L 420 490 L 419 491 L 419 496 L 418 497 L 418 516 L 419 517 L 419 521 L 420 522 L 420 525 L 421 526 L 421 529 L 422 530 L 422 531 L 423 532 L 423 534 L 424 535 L 424 536 L 425 537 L 425 538 L 426 539 L 426 540 L 427 541 L 427 542 L 428 543 L 429 546 L 431 548 L 432 551 L 447 566 L 448 566 L 450 568 L 451 568 L 454 571 L 454 572 L 451 574 L 449 574 L 448 575 L 446 575 L 445 576 L 443 576 L 438 579 L 436 579 L 435 580 L 434 580 L 433 581 L 430 582 L 428 584 L 425 585 L 423 587 L 422 587 L 420 589 L 419 589 L 416 592 L 415 592 L 411 596 L 410 596 L 407 599 L 407 600 L 405 602 L 404 602 L 403 603 L 403 604 L 397 610 L 397 611 L 394 614 L 394 615 L 392 617 L 391 620 L 389 622 L 389 623 L 388 624 L 388 625 L 387 626 L 387 627 L 384 632 L 384 634 L 382 637 L 382 639 L 381 640 L 381 642 L 380 643 L 380 645 L 379 646 L 379 648 L 378 649 L 378 652 L 377 653 L 377 657 L 376 658 L 376 663 L 375 664 L 375 673 L 374 674 L 374 726 L 375 727 L 375 730 L 376 731 L 376 732 L 382 738 L 383 738 L 384 739 L 387 739 L 388 740 L 512 740 L 514 742 L 513 743 L 513 748 L 512 749 L 512 756 L 511 757 L 511 824 L 512 825 L 512 827 L 514 829 L 514 830 L 517 833 L 518 833 L 520 835 L 521 835 L 522 836 L 536 836 L 537 837 L 561 837 L 562 836 L 563 836 L 564 837 L 566 837 L 567 836 L 581 836 L 582 837 L 583 837 L 584 836 L 597 836 L 598 837 L 626 837 L 627 836 L 630 836 L 631 837 L 639 837 L 640 836 L 643 836 L 644 837 L 647 837 L 648 836 L 649 837 L 657 837 L 658 836 L 660 836 L 661 837 L 686 837 L 687 836 L 688 836 L 689 837 L 692 837 L 693 836 L 695 836 L 696 837 L 713 837 L 714 836 L 728 836 L 729 835 L 732 834 L 737 829 L 737 828 L 738 827 L 738 824 L 739 823 L 739 755 L 738 754 L 738 745 L 737 744 L 737 742 L 739 740 L 861 740 L 862 739 L 865 739 L 866 738 L 869 737 L 873 733 L 873 732 L 875 729 L 875 725 L 876 724 L 876 681 L 875 680 L 875 667 L 874 666 L 874 659 L 873 658 L 873 656 L 872 655 L 872 651 L 871 650 L 871 647 L 870 646 L 870 644 L 869 643 L 869 641 L 867 638 L 867 636 L 866 635 L 866 633 L 865 632 L 864 629 L 862 627 L 862 626 L 861 625 L 861 624 L 860 623 L 859 620 L 857 618 L 856 615 L 852 611 L 852 610 L 848 606 L 848 605 L 838 595 L 837 595 L 834 592 L 833 592 L 830 589 L 829 589 L 827 587 L 826 587 L 821 583 L 820 583 L 819 582 L 818 582 L 817 581 L 816 581 L 815 580 L 814 580 L 813 579 L 812 579 L 807 576 L 805 576 L 804 575 L 802 575 L 801 574 L 799 574 L 796 572 L 796 571 L 799 568 L 800 568 L 803 565 L 804 565 L 815 554 L 815 553 L 818 550 L 818 549 L 820 547 L 820 546 L 821 545 L 821 544 L 822 543 L 822 542 L 823 541 L 823 540 L 824 539 L 824 538 L 827 533 L 827 531 L 828 530 L 828 527 L 829 526 L 829 523 L 830 522 L 830 518 L 831 517 L 831 494 L 830 493 L 830 489 L 829 488 L 829 484 L 828 483 L 828 481 L 826 478 L 826 476 L 825 475 L 825 474 L 824 473 L 824 472 L 823 471 L 822 468 L 820 466 L 819 463 L 817 461 L 817 460 L 813 456 L 813 455 L 806 448 L 805 448 L 802 445 L 801 445 L 796 441 L 795 441 L 794 440 L 793 440 L 788 437 L 786 437 L 785 436 L 783 436 L 780 434 L 777 434 L 776 433 L 771 433 L 770 432 L 750 432 L 749 433 L 745 433 L 744 434 L 741 434 L 740 435 L 738 435 L 737 436 L 735 436 L 734 437 L 733 437 L 732 438 L 731 438 L 730 439 L 729 439 L 728 440 L 725 441 L 723 443 L 722 443 L 720 445 L 719 445 L 716 448 L 715 448 L 707 456 L 707 457 L 703 461 L 703 462 L 701 464 L 701 465 L 697 470 L 697 472 L 694 477 L 694 479 L 693 480 L 693 482 L 692 483 L 692 485 L 691 486 L 691 489 L 690 490 L 690 494 L 689 495 L 689 517 L 690 518 L 690 523 L 691 524 L 691 527 L 692 528 L 692 530 L 693 531 L 693 533 L 694 534 L 694 535 L 697 540 L 697 542 L 699 544 L 700 547 L 702 549 L 702 550 L 704 552 L 704 553 L 715 564 L 716 564 L 720 568 L 721 568 L 724 571 L 724 572 L 723 573 L 721 573 L 720 574 L 718 574 L 717 575 L 715 575 L 710 578 L 708 578 L 707 579 L 706 579 L 705 580 L 704 580 L 699 583 L 697 583 L 696 582 L 696 577 L 695 576 L 695 574 L 694 573 L 694 571 L 693 570 L 693 568 L 692 567 L 692 565 L 691 564 L 691 563 L 690 562 L 690 561 L 689 560 L 688 557 L 686 555 L 686 554 L 684 552 L 684 551 L 681 548 L 681 547 L 670 536 L 669 536 L 667 534 L 666 534 L 661 530 L 660 530 L 659 529 L 658 529 L 657 528 L 656 528 L 651 525 L 648 525 L 647 524 L 644 524 L 643 523 L 640 523 L 639 522 L 636 522 L 635 521 L 619 521 L 618 522 L 612 522 L 611 523 L 608 523 L 607 524 L 605 524 L 604 525 L 602 525 L 601 526 L 599 526 L 598 527 L 595 528 L 593 530 L 590 531 L 588 533 L 587 533 L 585 535 L 584 535 L 581 538 L 580 538 L 573 545 L 573 546 L 570 549 L 570 550 L 566 555 L 565 558 L 563 560 L 563 561 L 562 562 L 562 564 L 560 567 L 560 569 L 559 570 L 559 572 L 558 573 L 558 576 L 557 577 L 557 582 L 555 585 L 554 585 L 553 584 L 552 584 L 550 582 L 548 582 L 546 580 L 544 580 L 543 579 L 542 579 L 541 578 L 540 578 L 535 575 L 532 575 L 531 574 L 528 574 L 525 571 L 527 569 L 528 569 L 530 567 L 531 567 L 536 562 L 537 562 L 544 555 L 544 554 L 547 551 L 547 550 L 551 545 L 551 544 L 552 543 L 552 542 L 553 541 L 553 540 L 556 535 L 556 533 L 557 532 L 557 530 L 558 529 L 558 527 L 559 526 L 559 522 L 560 521 L 560 516 L 561 515 L 561 498 L 560 497 L 560 491 L 559 490 L 559 487 L 558 486 L 558 483 L 557 482 L 557 480 L 554 475 L 554 473 L 553 472 L 552 469 L 550 467 L 550 466 L 549 465 L 549 464 L 547 462 L 547 461 L 544 458 L 544 457 L 535 448 L 534 448 L 531 445 L 530 445 L 525 441 L 524 441 L 523 440 L 522 440 L 517 437 L 515 437 L 514 436 L 513 436 L 512 435 L 510 435 L 509 434 L 505 434 L 504 433 L 500 433 L 499 432 L 479 432 L 478 433 L 474 433 L 473 434 L 470 434 L 469 435 L 467 435 L 466 436 L 464 436 L 463 437 L 462 437 L 461 438 L 460 438 L 459 439 L 458 439 L 457 440 L 456 440 L 455 441 L 452 442 L 449 445 L 448 445 L 446 447 L 445 447 L 436 456 L 436 457 L 432 461 L 432 462 L 430 464 L 429 467 Z M 539 713 L 541 711 L 541 710 L 543 708 L 543 707 L 546 704 L 546 703 L 561 688 L 562 688 L 566 684 L 567 684 L 569 682 L 572 681 L 574 679 L 575 679 L 578 677 L 580 677 L 581 676 L 582 676 L 585 674 L 587 674 L 590 672 L 592 672 L 593 671 L 595 671 L 596 670 L 599 670 L 600 669 L 602 669 L 603 668 L 608 668 L 609 667 L 616 667 L 617 666 L 634 666 L 635 667 L 642 667 L 643 668 L 648 668 L 649 669 L 652 669 L 653 670 L 656 670 L 657 671 L 659 671 L 660 672 L 662 672 L 663 673 L 665 673 L 666 674 L 668 674 L 669 675 L 670 675 L 671 676 L 672 676 L 673 677 L 674 677 L 675 678 L 676 678 L 677 679 L 680 680 L 682 682 L 683 682 L 685 684 L 686 684 L 689 687 L 690 687 L 705 702 L 705 703 L 707 705 L 707 706 L 711 711 L 711 712 L 712 713 L 712 714 L 713 715 L 713 716 L 714 717 L 714 718 L 717 723 L 717 725 L 718 726 L 718 728 L 719 729 L 719 731 L 720 732 L 720 734 L 721 735 L 721 739 L 722 740 L 722 743 L 723 744 L 723 749 L 724 750 L 724 767 L 725 768 L 725 818 L 724 819 L 724 820 L 722 822 L 528 822 L 525 819 L 525 807 L 526 806 L 526 804 L 525 803 L 525 766 L 526 765 L 526 754 L 527 753 L 527 746 L 528 745 L 528 742 L 529 741 L 529 738 L 530 737 L 530 734 L 531 733 L 531 731 L 532 730 L 532 728 L 533 727 L 533 725 L 534 724 L 534 723 L 535 722 L 535 721 L 536 720 L 536 719 L 537 718 L 537 717 L 538 716 Z M 662 655 L 663 654 L 664 654 L 666 652 L 667 652 L 669 650 L 670 650 L 682 638 L 682 637 L 686 632 L 687 629 L 689 627 L 689 626 L 691 623 L 691 621 L 693 618 L 693 616 L 694 615 L 694 613 L 695 612 L 695 610 L 696 609 L 696 604 L 697 603 L 697 602 L 702 598 L 704 598 L 706 596 L 707 596 L 708 595 L 709 595 L 710 594 L 711 594 L 712 593 L 713 593 L 718 590 L 720 590 L 723 588 L 725 588 L 726 587 L 728 587 L 729 586 L 732 586 L 733 585 L 736 585 L 737 584 L 742 584 L 743 583 L 747 583 L 748 582 L 769 582 L 770 583 L 777 583 L 778 584 L 784 584 L 785 585 L 787 585 L 788 586 L 790 586 L 791 587 L 793 587 L 794 588 L 796 588 L 799 590 L 801 590 L 804 592 L 806 592 L 807 593 L 808 593 L 809 594 L 810 594 L 811 595 L 812 595 L 813 596 L 816 597 L 819 600 L 820 600 L 822 602 L 823 602 L 828 607 L 829 607 L 838 616 L 838 617 L 842 621 L 842 622 L 844 624 L 844 625 L 848 630 L 848 631 L 849 632 L 849 633 L 852 638 L 852 640 L 854 643 L 854 645 L 855 646 L 855 648 L 856 649 L 856 651 L 857 652 L 857 655 L 858 656 L 858 659 L 859 660 L 859 664 L 860 665 L 860 672 L 861 673 L 861 723 L 859 725 L 734 725 L 732 723 L 732 721 L 731 720 L 731 718 L 729 715 L 729 713 L 728 712 L 727 709 L 725 707 L 725 706 L 724 705 L 723 702 L 721 700 L 720 697 L 716 693 L 716 692 L 710 686 L 710 685 L 706 681 L 705 681 L 700 676 L 699 676 L 697 674 L 696 674 L 693 671 L 690 670 L 688 668 L 685 667 L 683 665 L 682 665 L 681 664 L 680 664 L 675 661 L 673 661 L 670 659 L 667 659 L 666 658 L 663 657 L 662 656 Z M 591 655 L 589 657 L 588 657 L 587 658 L 584 658 L 579 661 L 577 661 L 574 663 L 572 663 L 571 664 L 570 664 L 568 666 L 567 666 L 566 667 L 563 668 L 561 670 L 560 670 L 558 672 L 557 672 L 554 675 L 553 675 L 551 677 L 550 677 L 538 689 L 538 690 L 532 696 L 532 697 L 530 699 L 529 702 L 527 704 L 527 705 L 526 706 L 526 707 L 525 708 L 525 709 L 524 710 L 524 711 L 523 712 L 523 713 L 520 718 L 520 720 L 519 721 L 519 723 L 517 725 L 390 725 L 388 723 L 388 680 L 389 679 L 389 668 L 390 667 L 390 662 L 391 661 L 391 657 L 392 656 L 392 653 L 393 652 L 393 650 L 394 649 L 394 647 L 395 646 L 395 644 L 396 643 L 396 641 L 397 640 L 397 639 L 398 638 L 398 637 L 399 636 L 399 635 L 400 634 L 400 633 L 401 632 L 402 629 L 404 627 L 404 626 L 406 624 L 406 623 L 409 620 L 409 619 L 415 613 L 415 612 L 417 610 L 418 610 L 425 603 L 426 603 L 428 601 L 429 601 L 434 597 L 435 597 L 436 596 L 437 596 L 438 595 L 439 595 L 440 594 L 441 594 L 442 593 L 443 593 L 444 592 L 445 592 L 450 589 L 452 589 L 453 588 L 455 588 L 456 587 L 458 587 L 459 586 L 462 586 L 463 585 L 465 585 L 466 584 L 470 584 L 471 583 L 480 583 L 481 582 L 502 582 L 503 583 L 508 583 L 509 584 L 514 584 L 515 585 L 518 585 L 519 586 L 522 586 L 523 587 L 525 587 L 528 589 L 530 589 L 535 592 L 537 592 L 538 593 L 539 593 L 540 594 L 541 594 L 542 595 L 543 595 L 544 596 L 547 597 L 549 599 L 550 599 L 552 601 L 553 601 L 557 605 L 557 610 L 558 611 L 558 613 L 559 614 L 559 616 L 560 617 L 560 619 L 561 620 L 561 621 L 562 622 L 562 623 L 563 624 L 563 625 L 564 626 L 564 627 L 565 628 L 566 631 L 568 633 L 568 634 L 571 637 L 571 638 L 582 649 L 583 649 L 586 652 L 589 653 Z M 620 536 L 633 536 L 634 537 L 638 537 L 639 538 L 642 538 L 643 539 L 645 539 L 646 540 L 648 540 L 649 541 L 650 541 L 651 542 L 654 543 L 659 547 L 660 547 L 671 558 L 671 559 L 674 562 L 674 563 L 676 565 L 676 566 L 677 567 L 677 569 L 679 572 L 679 574 L 680 575 L 680 577 L 681 578 L 681 581 L 682 582 L 682 587 L 683 588 L 683 598 L 682 599 L 682 604 L 681 605 L 681 608 L 680 609 L 680 611 L 679 612 L 679 614 L 678 615 L 678 616 L 677 617 L 677 618 L 676 619 L 675 622 L 673 624 L 673 625 L 671 627 L 671 628 L 660 639 L 659 639 L 656 642 L 653 643 L 651 645 L 650 645 L 649 646 L 647 646 L 646 647 L 645 647 L 644 648 L 642 648 L 641 649 L 638 649 L 637 650 L 631 650 L 630 651 L 624 651 L 623 650 L 615 650 L 614 649 L 612 649 L 611 648 L 609 648 L 608 647 L 606 647 L 605 646 L 604 646 L 603 645 L 602 645 L 601 644 L 598 643 L 596 641 L 595 641 L 592 638 L 591 638 L 585 632 L 585 631 L 581 627 L 581 626 L 577 621 L 577 620 L 576 619 L 576 617 L 573 612 L 573 610 L 572 609 L 572 606 L 571 605 L 571 601 L 570 600 L 570 585 L 571 584 L 571 580 L 572 579 L 572 577 L 573 576 L 573 574 L 575 571 L 575 569 L 576 568 L 577 565 L 581 560 L 581 559 L 594 546 L 597 545 L 599 543 L 602 542 L 604 540 L 606 540 L 607 539 L 609 539 L 610 538 L 613 538 L 614 537 L 619 537 Z M 750 447 L 769 447 L 770 448 L 774 448 L 775 449 L 777 449 L 778 450 L 780 450 L 781 451 L 783 451 L 784 452 L 785 452 L 787 454 L 788 454 L 789 455 L 790 455 L 792 457 L 793 457 L 805 469 L 805 470 L 808 473 L 808 474 L 810 476 L 810 478 L 811 479 L 811 480 L 813 483 L 813 485 L 814 486 L 814 489 L 816 492 L 816 498 L 817 499 L 817 511 L 816 512 L 816 518 L 815 519 L 815 523 L 814 524 L 814 526 L 812 529 L 812 531 L 811 532 L 811 533 L 810 534 L 809 537 L 807 539 L 807 540 L 804 543 L 804 544 L 794 554 L 793 554 L 790 557 L 787 558 L 785 560 L 784 560 L 781 562 L 779 562 L 778 563 L 776 563 L 775 564 L 772 564 L 771 565 L 767 565 L 766 566 L 755 566 L 754 565 L 747 565 L 744 563 L 741 563 L 740 562 L 739 562 L 738 561 L 737 561 L 736 560 L 733 559 L 731 557 L 728 556 L 723 551 L 722 551 L 718 547 L 718 546 L 715 543 L 715 542 L 711 537 L 711 536 L 710 535 L 710 534 L 707 529 L 707 527 L 706 526 L 706 524 L 705 523 L 705 519 L 704 518 L 704 511 L 703 510 L 703 502 L 704 501 L 704 495 L 705 494 L 705 491 L 706 490 L 706 487 L 709 482 L 709 480 L 710 479 L 710 478 L 711 477 L 712 474 L 714 472 L 714 471 L 717 468 L 717 467 L 725 459 L 726 459 L 729 456 L 730 456 L 732 454 L 733 454 L 738 451 L 740 451 L 743 449 L 745 449 L 746 448 L 749 448 Z M 480 447 L 499 447 L 500 448 L 504 448 L 505 449 L 507 449 L 508 450 L 510 450 L 511 451 L 512 451 L 513 452 L 516 453 L 518 455 L 521 456 L 523 458 L 524 458 L 532 466 L 532 467 L 538 474 L 538 475 L 539 476 L 539 477 L 542 482 L 542 484 L 543 485 L 543 487 L 544 488 L 544 490 L 545 491 L 545 495 L 546 496 L 546 515 L 545 516 L 545 521 L 544 522 L 544 525 L 543 526 L 543 528 L 542 529 L 542 530 L 541 531 L 541 532 L 540 533 L 540 534 L 539 535 L 538 538 L 536 540 L 536 541 L 533 544 L 533 545 L 526 552 L 525 552 L 521 556 L 520 556 L 518 558 L 515 559 L 513 561 L 512 561 L 511 562 L 509 562 L 508 563 L 506 563 L 505 564 L 501 564 L 500 565 L 497 565 L 496 566 L 483 566 L 482 565 L 478 565 L 477 564 L 474 564 L 473 563 L 471 563 L 470 562 L 468 562 L 467 561 L 466 561 L 465 560 L 462 559 L 457 555 L 456 555 L 446 545 L 446 544 L 443 541 L 443 540 L 441 538 L 441 537 L 440 536 L 440 535 L 439 534 L 439 533 L 436 528 L 436 526 L 435 525 L 435 522 L 434 521 L 434 518 L 433 517 L 433 510 L 432 509 L 432 502 L 433 501 L 433 495 L 434 494 L 434 490 L 435 489 L 435 487 L 437 484 L 437 482 L 438 481 L 438 480 L 439 479 L 440 476 L 442 474 L 443 471 L 447 467 L 447 466 L 453 460 L 454 460 L 461 454 L 462 454 L 467 451 L 469 451 L 470 450 L 472 450 L 473 449 L 475 449 L 476 448 L 479 448 Z" fill="#709458" fill-rule="evenodd"/>
</svg>
