<?xml version="1.0" encoding="UTF-8"?>
<svg id="_레이어_1" data-name="레이어 1" xmlns="http://www.w3.org/2000/svg" viewBox="0 0 1436.09 445.5">
  <defs>
    <style>
      .cls-1 {
        fill: #bababa;
      }

      .cls-2 {
        fill: #fff;
      }

      .cls-3 {
        fill: #3b5b3b;
      }

      .cls-4 {
        fill: #162613;
      }
    </style>
  </defs>
  <g>
    <path d="M860.71,74.46h104.36c5.04,0,9.12-4.08,9.12-9.12v-3.08c0-5.04-4.08-9.12-9.12-9.12h-104.36c-5.04,0-9.12,4.08-9.12,9.11v3.08c0,5.04,4.08,9.12,9.12,9.12Z"/>
    <path d="M1071.67,53.14h-.38c-5.04,0-9.12,4.09-9.12,9.13l.09,102.22c0,5.04-4.08,9.13-9.12,9.13h-18.95c-5.04,0-9.12-4.09-9.12-9.13l.08-102.23c0-5.04-4.08-9.13-9.12-9.13h-.24c-5.04,0-9.12,4.08-9.12,9.12v242.95c0,5.04,4.08,9.12,9.12,9.12h.24c5.04,0,9.12-4.09,9.12-9.12l-.07-104.08c0-5.04,4.08-9.12,9.12-9.12h18.95c5.04,0,9.12,4.08,9.12,9.12v104.09c0,5.04,4.08,9.12,9.12,9.12h.28c5.04,0,9.12-4.08,9.12-9.12V62.26c0-5.04-4.08-9.12-9.12-9.12Z"/>
    <path d="M1175.55,145.76h135.77s46.55-.29,46.7-46.31c-.14-46.02-46.7-46.31-46.7-46.31h-135.77s-46.55.29-46.7,46.31c.14,46.02,46.7,46.31,46.7,46.31ZM1147.34,99.3s0,.05,0,.08c.05-27.58,25.37-27.58,25.37-27.58h141.43s25.32,0,25.37,27.58c0-.03,0-.05,0-.08v.15s0-.05,0-.08c-.05,27.58-25.37,27.58-25.37,27.58h-141.43s-25.32,0-25.37-27.58c0,.03,0,.05,0,.08v-.15Z"/>
    <path d="M1128.85,99.24v.41c0-.07,0-.14,0-.21,0-.07,0-.14,0-.21Z"/>
    <path d="M1147.34,99.3v.15s0-.05,0-.08,0-.05,0-.08Z"/>
    <path d="M1263.04,192.49h85.89c5.04,0,9.12-4.08,9.12-9.12v-.57c0-5.04-4.08-9.12-9.12-9.12h-210.96c-5.04,0-9.12,4.08-9.12,9.12v.32c0,5.02,4.06,9.1,9.09,9.12l88.42.29c5.03.02,9.09,4.1,9.09,9.13v9.31c-.02,5.03-4.1,9.11-9.13,9.11h-88.35c-5.04,0-9.12,4.08-9.12,9.12v76c0,5.04,4.08,9.12,9.12,9.12h210.94c5.03,0,9.12-4.08,9.12-9.12l.02-76c0-5.04-4.08-9.12-9.12-9.12h-85.9c-5.04,0-9.12-4.09-9.12-9.13v-9.35c.02-5.03,4.1-9.11,9.13-9.11ZM1330.4,238.55c5.04,0,9.12,4.08,9.12,9.12v39.03c0,5.04-4.08,9.12-9.12,9.12h-173.93c-5.04,0-9.12-4.08-9.12-9.12v-39.03c0-5.04,4.08-9.12,9.12-9.12h173.93Z"/>
    <path d="M921.32,131.54c0-5.04,4.08-9.12,9.12-9.12h34.63c5.04,0,9.12-4.08,9.12-9.12v-3.08c0-5.04-4.08-9.12-9.12-9.12h-104.36c-5.04,0-9.12,4.08-9.12,9.12v3.08c0,5.04,4.08,9.12,9.12,9.12h33.05c5.04,0,9.12,4.08,9.12,9.12v139.03s0,22.34-42.49,24.98c-4.79.3-8.54,4.29-8.54,9.09,0,5.39,4.63,9.61,9.99,9.08,19.22-1.9,59.48-9.85,59.48-43.15v-139.03Z"/>
    <path d="M929.86,295.56c-4.79.3-8.54,4.29-8.54,9.09,0,5.39,4.63,9.61,9.99,9.08,19.22-1.9,59.48-9.85,59.48-43.15h-18.44s0,22.34-42.49,24.98Z"/>
    <g>
      <path d="M721.98,293.41h-117.05c-5.04,0-9.12-4.09-9.12-9.12V83.98c0-5.04,4.08-9.12,9.12-9.12h117.05c5.04,0,9.12-4.08,9.12-9.12v-3.08c0-5.04-4.08-9.12-9.12-9.12h-138.41c-5.04,0-9.12,4.08-9.12,9.11v12.2h.04v218.54h-.04v12.2c0,5.04,4.08,9.12,9.12,9.12h138.41c5.04,0,9.12-4.08,9.12-9.12v-3.08c0-5.04-4.08-9.12-9.12-9.12Z"/>
      <path d="M794.34,53.14h-3.08c-5.04,0-9.12,4.08-9.12,9.12v107.99h0s0,22.34-42.49,24.98c-4.79.3-8.54,4.29-8.54,9.09,0,5.39,4.63,9.61,9.99,9.08,10.69-1.06,27.88-4,41.04-12.13v104.34c0,5.04,4.08,9.12,9.12,9.12h3.08c5.04,0,9.12-4.08,9.12-9.12V62.26c0-5.04-4.08-9.12-9.12-9.12Z"/>
    </g>
  </g>
  <path d="M574.46,353.72v-7.63h47.3v7.63h-18.93v50.4h-9.36v-50.4h-19.01Z"/>
  <path d="M690.21,404.12v-58.03h9.32v24.54h30.17v-24.54h9.36v58.03h-9.36v-25.86h-30.17v25.86h-9.32Z"/>
  <path d="M807.52,404.12v-58.03h38.35v7.63h-29.03v17.29h26.94v7.59h-26.94v17.88h29.27v7.63h-38.59Z"/>
  <path d="M955.24,404.12v-58.03h37.9v7.63h-28.58v18.66h25.84v7.59h-25.84v24.15h-9.32Z"/>
  <path d="M1096.33,405.01c-4.88,0-9.14-.9-12.8-2.69-3.65-1.79-6.48-4.25-8.48-7.38-2-3.13-3-6.72-3-10.77v-38.09h9.32v37.35c0,2.62.61,4.95,1.82,6.97,1.21,2.02,2.94,3.62,5.17,4.79,2.23,1.17,4.89,1.75,7.97,1.75s5.69-.58,7.91-1.75c2.22-1.17,3.93-2.77,5.13-4.79,1.2-2.03,1.8-4.35,1.8-6.97v-37.35h9.36v38.09c0,4.05-1,7.64-3,10.77-2,3.13-4.82,5.59-8.46,7.38s-7.88,2.69-12.73,2.69Z"/>
  <path d="M1199.45,404.12v-58.03h9.32v50.4h27.59v7.63h-36.91Z"/>
  <path d="M1315.28,404.12v-58.03h9.32v50.4h27.59v7.63h-36.91Z"/>
  <polygon class="cls-4" points="444.1 40.49 440.1 404.12 430.84 404.12 426.84 40.49 444.1 40.49"/>
  <polygon class="cls-4" points="490.97 41.95 456.85 403.96 447.63 403.18 473.77 40.49 490.97 41.95"/>
  <polygon class="cls-4" points="388.73 73.69 110.15 73.69 110.15 194.88 161.26 194.88 161.9 208.53 156.25 219.38 110.15 219.38 110.15 404.12 78.04 404.12 78.04 41.58 388.73 41.58 388.73 73.69"/>
  <rect class="cls-4" x="242.05" y="372.66" width="91.83" height="30.87" rx="1.61" ry="1.61"/>
  <path class="cls-3" d="M272.43,388.09l33.8-.53c32.48-.51,58.4-27.25,57.9-59.73l-.91-58.6c-4.03-.84-7.8-2.39-11.19-4.5-5.34,3.57-11.73,5.7-18.63,5.81-8.02.13-15.44-2.5-21.37-6.99-6.17,6.47-14.82,10.56-24.46,10.71-9.87.15-18.82-3.85-25.22-10.39-5.88,4.95-13.43,7.99-21.71,8.12-6.69.1-12.96-1.7-18.3-4.91-3.19,2.05-6.75,3.59-10.55,4.51l.91,58.6c.51,32.48,27.25,58.4,59.73,57.9Z"/>
  <path class="cls-4" d="M271.5,396.73c-36.71,0-66.86-29.57-67.43-66.4l-1.02-65.51,6.71-1.62c2.82-.68,5.48-1.82,7.9-3.38l4.51-2.91,4.6,2.76c4.14,2.48,8.88,3.75,13.72,3.68,6.04-.1,11.67-2.2,16.28-6.09l6.12-5.16,5.6,5.72c5.03,5.14,11.75,7.84,18.92,7.79,7-.11,13.52-2.96,18.35-8.04l5.31-5.58,6.14,4.65c4.65,3.52,10.14,5.32,16.03,5.24,4.99-.08,9.82-1.58,13.97-4.35l4.63-3.1,4.73,2.95c2.59,1.61,5.41,2.75,8.39,3.37l6.75,1.41,1.02,65.5c.28,18.01-6.47,35.06-19.01,48-12.54,12.94-29.37,20.22-47.38,20.5l-33.8.53c-.35,0-.71,0-1.07,0ZM220.51,277.77l.81,52.29c.43,27.67,23.24,49.86,50.97,49.41l33.8-.53c13.41-.21,25.93-5.63,35.26-15.25,9.33-9.63,14.36-22.31,14.15-35.72l-.81-52.29c-.85-.33-1.68-.68-2.51-1.07-5.77,2.89-12.13,4.46-18.65,4.56-7.33.15-14.31-1.56-20.64-4.88-7.23,5.44-15.96,8.45-25.2,8.6-.23,0-.46,0-.7,0-9.19,0-17.91-2.84-25.21-8.13-6.36,3.69-13.62,5.74-21.03,5.85-6.36.09-12.56-1.19-18.28-3.74-.65.32-1.31.61-1.97.89Z"/>
  <path class="cls-2" d="M387.79,216.18l-4.61-3.91,2.12-5.66c1.14-3.04,1.69-6.23,1.64-9.48-.16-10.53-6.6-19.84-16.38-23.73l-5.1-2.02-.31-5.48c-.79-13.94-12.34-24.69-26.31-24.47-5.33.08-10.42,1.77-14.74,4.88l-9.41,6.78-3.74-10.98c-3.64-10.69-13.68-17.76-24.98-17.58-11.3.18-21.11,7.55-24.41,18.35l-3.4,11.09-9.62-6.48c-4.41-2.97-9.56-4.5-14.88-4.41-13.97.22-25.18,11.32-25.54,25.28l-.14,5.48-5.03,2.18c-9.66,4.19-15.8,13.7-15.64,24.23.05,3.25.7,6.42,1.93,9.43l2.29,5.59-4.49,4.05c-5.57,5.03-8.7,12.2-8.59,19.68.18,11.5,8.05,21.63,19.14,24.64,4.21,1.14,8.63,1.21,12.92.18,2.82-.68,5.49-1.82,7.91-3.38l4.49-2.89,4.58,2.75c4.14,2.49,8.89,3.76,13.74,3.69,6.05-.09,11.69-2.2,16.31-6.1l6.1-5.14,5.58,5.7c5.04,5.15,11.77,7.92,18.95,7.81,7.01-.11,13.54-2.97,18.38-8.05l5.29-5.55,6.12,4.63c4.66,3.53,10.21,5.34,16.05,5.25,5-.08,9.84-1.59,13.99-4.36l4.62-3.09,4.71,2.94c2.59,1.62,5.42,2.75,8.4,3.38,4.24.89,8.72.69,12.91-.59,10.99-3.35,18.54-13.73,18.36-25.22-.12-7.48-3.47-14.56-9.2-19.41Z"/>
  <path class="cls-1" d="M404.11,196.87c-.25-15.71-8.89-29.8-22.43-37.18-3.68-20.56-21.69-35.76-43.12-35.43-5.44.08-10.74,1.18-15.69,3.21-7.89-12.56-21.83-20.36-37.18-20.12-15.34.24-29.04,8.47-36.53,21.27-5-1.88-10.34-2.8-15.78-2.72-21.43.33-38.96,16.09-42,36.76-13.31,7.8-21.51,22.15-21.26,37.87.05,3.46.52,6.87,1.38,10.19-6.72,7.92-10.4,18.06-10.23,28.56.3,19.11,13.38,35.95,31.82,40.95,6.99,1.9,14.37,2.01,21.46.3,3.01-.73,5.92-1.77,8.68-3.11,5.72,2.56,11.95,3.85,18.28,3.75,7.42-.12,14.68-2.16,21.04-5.86,7.48,5.43,16.45,8.28,25.9,8.13,9.24-.14,17.97-3.16,25.2-8.6,6.33,3.33,13.35,5,20.64,4.89,6.52-.1,12.88-1.67,18.65-4.56,2.96,1.37,6.07,2.4,9.28,3.07,7.06,1.48,14.49,1.15,21.44-.97,18.27-5.58,30.82-22.82,30.52-41.93-.16-10.5-4.16-20.52-11.12-28.23.76-3.34,1.12-6.76,1.06-10.23ZM378.62,260.81c-4.19,1.28-8.66,1.48-12.91.59-2.98-.62-5.81-1.76-8.4-3.38l-4.71-2.94-4.62,3.09c-4.15,2.77-8.99,4.28-13.99,4.36-5.84.09-11.39-1.73-16.05-5.25l-6.12-4.63-5.29,5.55c-4.84,5.08-11.37,7.94-18.38,8.05-7.18.11-13.91-2.66-18.95-7.81l-5.58-5.7-6.1,5.14c-4.62,3.89-10.26,6-16.31,6.1-4.85.08-9.6-1.2-13.74-3.69l-4.58-2.75-4.49,2.89c-2.43,1.56-5.09,2.7-7.91,3.38-4.29,1.04-8.71.96-12.92-.18-11.09-3.01-18.96-13.14-19.14-24.64-.12-7.48,3.01-14.66,8.59-19.68l4.49-4.05-2.29-5.59c-1.23-3.01-1.88-6.18-1.93-9.43-.16-10.53,5.97-20.04,15.64-24.23l5.03-2.18.14-5.48c.35-13.96,11.57-25.06,25.54-25.28,5.32-.08,10.47,1.44,14.88,4.41l9.62,6.48,3.4-11.09c3.31-10.8,13.12-18.17,24.41-18.35,11.3-.18,21.34,6.89,24.98,17.58l3.74,10.98,9.41-6.78c4.32-3.11,9.41-4.79,14.74-4.88,13.97-.22,25.52,10.53,26.31,24.47l.31,5.48,5.1,2.02c9.79,3.89,16.22,13.2,16.38,23.73.05,3.25-.5,6.44-1.64,9.48l-2.12,5.66,4.61,3.91c5.73,4.85,9.08,11.92,9.2,19.41.18,11.5-7.37,21.87-18.36,25.22Z"/>
</svg>