<?xml version="1.0" encoding="UTF-8"?>
<svg id="_레이어_1" data-name="레이어 1" xmlns="http://www.w3.org/2000/svg" xmlns:xlink="http://www.w3.org/1999/xlink" viewBox="0 0 1436.09 445.5">
  <defs>
    <style>
      .cls-1, .cls-2 {
        fill: #fff;
      }

      .cls-2 {
        stroke: #fff;
        stroke-miterlimit: 10;
        stroke-width: 3px;
      }

      .cls-3 {
        fill: url(#_무제_그라디언트_14);
      }
    </style>
    <linearGradient id="_무제_그라디언트_14" data-name="무제 그라디언트 14" x1="288.01" y1="259.91" x2="288.01" y2="382.99" gradientUnits="userSpaceOnUse">
      <stop offset="0" stop-color="#000"/>
      <stop offset="1" stop-color="#3b5b3b"/>
    </linearGradient>
  </defs>
  <g>
    <path class="cls-1" d="M860.71,63.31h104.36c5.04,0,9.12-4.08,9.12-9.12v-3.08c0-5.04-4.08-9.12-9.12-9.12h-104.36c-5.04,0-9.12,4.08-9.12,9.11v3.08c0,5.04,4.08,9.12,9.12,9.12Z"/>
    <path class="cls-1" d="M1071.67,41.99h-.38c-5.04,0-9.12,4.09-9.12,9.13l.09,102.22c0,5.04-4.08,9.13-9.12,9.13h-18.95c-5.04,0-9.12-4.09-9.12-9.13l.08-102.23c0-5.04-4.08-9.13-9.12-9.13h-.24c-5.04,0-9.12,4.08-9.12,9.12v242.95c0,5.04,4.08,9.12,9.12,9.12h.24c5.04,0,9.12-4.09,9.12-9.12l-.07-104.08c0-5.04,4.08-9.12,9.12-9.12h18.95c5.04,0,9.12,4.08,9.12,9.12v104.09c0,5.04,4.08,9.12,9.12,9.12h.28c5.04,0,9.12-4.08,9.12-9.12V51.11c0-5.04-4.08-9.12-9.12-9.12Z"/>
    <path class="cls-1" d="M1175.55,134.6h135.77s46.55-.29,46.7-46.31c-.14-46.02-46.7-46.31-46.7-46.31h-135.77s-46.55.29-46.7,46.31c.14,46.02,46.7,46.31,46.7,46.31ZM1147.34,88.15s0,.05,0,.08c.05-27.58,25.37-27.58,25.37-27.58h141.43s25.32,0,25.37,27.58c0-.03,0-.05,0-.08v.15s0-.05,0-.08c-.05,27.58-25.37,27.58-25.37,27.58h-141.43s-25.32,0-25.37-27.58c0,.03,0,.05,0,.08v-.15Z"/>
    <path class="cls-1" d="M1128.85,88.09v.41c0-.07,0-.14,0-.21,0-.07,0-.14,0-.21Z"/>
    <path class="cls-1" d="M1147.34,88.15v.15s0-.05,0-.08,0-.05,0-.08Z"/>
    <path class="cls-1" d="M1263.04,181.34h85.89c5.04,0,9.12-4.08,9.12-9.12v-.57c0-5.04-4.08-9.12-9.12-9.12h-210.96c-5.04,0-9.12,4.08-9.12,9.12v.32c0,5.02,4.06,9.1,9.09,9.12l88.42.29c5.03.02,9.09,4.1,9.09,9.13v9.31c-.02,5.03-4.1,9.11-9.13,9.11h-88.35c-5.04,0-9.12,4.08-9.12,9.12v76c0,5.04,4.08,9.12,9.12,9.12h210.94c5.03,0,9.12-4.08,9.12-9.12l.02-76c0-5.04-4.08-9.12-9.12-9.12h-85.9c-5.04,0-9.12-4.09-9.12-9.13v-9.35c.02-5.03,4.1-9.11,9.13-9.11ZM1330.4,227.39c5.04,0,9.12,4.08,9.12,9.12v39.03c0,5.04-4.08,9.12-9.12,9.12h-173.93c-5.04,0-9.12-4.08-9.12-9.12v-39.03c0-5.04,4.08-9.12,9.12-9.12h173.93Z"/>
    <path class="cls-1" d="M921.32,120.38c0-5.04,4.08-9.12,9.12-9.12h34.63c5.04,0,9.12-4.08,9.12-9.12v-3.08c0-5.04-4.08-9.12-9.12-9.12h-104.36c-5.04,0-9.12,4.08-9.12,9.12v3.08c0,5.04,4.08,9.12,9.12,9.12h33.05c5.04,0,9.12,4.08,9.12,9.12v139.03s0,22.34-42.49,24.98c-4.79.3-8.54,4.29-8.54,9.09,0,5.39,4.63,9.61,9.99,9.08,19.22-1.9,59.48-9.85,59.48-43.15V120.38Z"/>
    <path class="cls-1" d="M929.86,284.41c-4.79.3-8.54,4.29-8.54,9.09,0,5.39,4.63,9.61,9.99,9.08,19.22-1.9,59.48-9.85,59.48-43.15h-18.44s0,22.34-42.49,24.98Z"/>
    <g>
      <path class="cls-1" d="M721.98,282.26h-117.05c-5.04,0-9.12-4.09-9.12-9.12V72.83c0-5.04,4.08-9.12,9.12-9.12h117.05c5.04,0,9.12-4.08,9.12-9.12v-3.08c0-5.04-4.08-9.12-9.12-9.12h-138.41c-5.04,0-9.12,4.08-9.12,9.11v12.2h.04v218.54h-.04v12.2c0,5.04,4.08,9.12,9.12,9.12h138.41c5.04,0,9.12-4.08,9.12-9.12v-3.08c0-5.04-4.08-9.12-9.12-9.12Z"/>
      <path class="cls-1" d="M794.34,41.99h-3.08c-5.04,0-9.12,4.08-9.12,9.12v107.99h0s0,22.34-42.49,24.98c-4.79.3-8.54,4.29-8.54,9.09,0,5.39,4.63,9.61,9.99,9.08,10.69-1.06,27.88-4,41.04-12.13v104.34c0,5.04,4.08,9.12,9.12,9.12h3.08c5.04,0,9.12-4.08,9.12-9.12V51.11c0-5.04-4.08-9.12-9.12-9.12Z"/>
    </g>
  </g>
  <path class="cls-1" d="M574.46,342.57v-7.63h47.3v7.63h-18.93v50.4h-9.36v-50.4h-19.01Z"/>
  <path class="cls-1" d="M690.21,392.97v-58.03h9.32v24.54h30.17v-24.54h9.36v58.03h-9.36v-25.86h-30.17v25.86h-9.32Z"/>
  <path class="cls-1" d="M807.52,392.97v-58.03h38.35v7.63h-29.03v17.29h26.94v7.59h-26.94v17.88h29.27v7.63h-38.59Z"/>
  <path class="cls-1" d="M955.24,392.97v-58.03h37.9v7.63h-28.58v18.66h25.84v7.59h-25.84v24.15h-9.32Z"/>
  <path class="cls-1" d="M1096.33,393.86c-4.88,0-9.14-.9-12.8-2.69-3.65-1.79-6.48-4.25-8.48-7.38-2-3.13-3-6.72-3-10.77v-38.09h9.32v37.35c0,2.62.61,4.95,1.82,6.97,1.21,2.02,2.94,3.62,5.17,4.79,2.23,1.17,4.89,1.75,7.97,1.75s5.69-.58,7.91-1.75c2.22-1.17,3.93-2.77,5.13-4.79,1.2-2.03,1.8-4.35,1.8-6.97v-37.35h9.36v38.09c0,4.05-1,7.64-3,10.77-2,3.13-4.82,5.59-8.46,7.38s-7.88,2.69-12.73,2.69Z"/>
  <path class="cls-1" d="M1199.45,392.97v-58.03h9.32v50.4h27.59v7.63h-36.91Z"/>
  <path class="cls-1" d="M1315.28,392.97v-58.03h9.32v50.4h27.59v7.63h-36.91Z"/>
  <polygon class="cls-1" points="444.1 29.34 440.1 392.97 430.84 392.97 426.84 29.34 444.1 29.34"/>
  <polygon class="cls-1" points="490.97 30.79 456.85 392.81 447.63 392.03 473.77 29.34 490.97 30.79"/>
  <polygon class="cls-1" points="388.73 62.54 110.15 62.54 110.15 183.72 161.26 183.72 161.9 197.38 156.25 208.23 110.15 208.23 110.15 392.97 78.04 392.97 78.04 30.42 388.73 30.42 388.73 62.54"/>
  <g>
    <path class="cls-1" d="M287.74,273.28c-9.15,0-17.86-2.75-25.26-7.95-6.4,3.6-13.64,5.56-20.96,5.67-.23,0-.46,0-.69,0-6.1,0-12.01-1.23-17.59-3.65-2.7,1.27-5.54,2.27-8.46,2.98-3.4.82-6.89,1.24-10.38,1.24-3.91,0-7.81-.52-11.57-1.54-18.86-5.12-32.25-22.35-32.55-41.9-.16-10.51,3.43-20.73,10.14-28.83-.8-3.23-1.24-6.57-1.29-9.92-.25-15.72,7.92-30.43,21.35-38.5,3.34-21.21,21.31-36.8,42.9-37.14.23,0,.47,0,.7,0,5.03,0,9.96.84,14.66,2.5,7.91-12.95,21.66-20.8,36.95-21.04.23,0,.47,0,.7,0,15,0,28.73,7.42,36.89,19.89,4.86-1.89,10-2.89,15.28-2.97.24,0,.47,0,.71,0,21.24,0,39.38,15.02,43.33,35.79,13.67,7.65,22.29,22.09,22.53,37.81.05,3.35-.28,6.7-.98,9.96,6.96,7.89,10.87,17.99,11.03,28.5.31,19.55-12.54,37.19-31.23,42.9-4.18,1.28-8.54,1.92-12.93,1.92h0c-3.03,0-6.06-.31-9-.93-3.12-.65-6.17-1.64-9.06-2.95-5.84,2.86-12.11,4.35-18.65,4.46-.24,0-.48,0-.71,0-7.01,0-13.69-1.59-19.85-4.72-7.35,5.37-16.07,8.28-25.28,8.43-.24,0-.48,0-.71,0ZM263.64,240.59c.26,0,.52.1.71.3l5.58,5.7c4.74,4.84,11.07,7.51,17.81,7.51h.4c6.74-.11,13.02-2.86,17.67-7.74l5.29-5.55c.2-.21.46-.31.72-.31.21,0,.42.07.6.2l6.12,4.63c4.37,3.31,9.56,5.05,15.03,5.05h.4c4.81-.08,9.46-1.53,13.45-4.19l4.62-3.09c.17-.11.36-.17.56-.17.18,0,.37.05.53.15l4.71,2.94c2.49,1.56,5.21,2.65,8.07,3.25,1.66.35,3.37.52,5.09.52,2.49,0,4.95-.37,7.32-1.09,10.57-3.23,17.82-13.2,17.65-24.25-.11-7.19-3.34-14-8.84-18.66l-4.61-3.9c-.32-.27-.44-.72-.29-1.11l2.12-5.66c1.09-2.92,1.62-5.99,1.57-9.12-.16-10.12-6.34-19.08-15.75-22.81l-5.1-2.02c-.36-.14-.61-.48-.63-.87l-.31-5.48c-.74-13.19-11.68-23.53-24.9-23.53h-.4c-5.12.08-10.02,1.7-14.17,4.69l-9.41,6.78c-.17.12-.38.19-.58.19-.1,0-.2-.02-.3-.05-.3-.1-.54-.33-.64-.63l-3.74-10.98c-3.44-10.11-12.93-16.91-23.62-16.91h-.4c-10.86.17-20.3,7.26-23.47,17.65l-3.4,11.09c-.09.3-.32.54-.62.65-.11.04-.22.06-.33.06-.2,0-.39-.06-.56-.17l-9.62-6.48c-4.12-2.78-8.93-4.25-13.91-4.25h-.4c-13.43.21-24.21,10.89-24.55,24.3l-.14,5.48c0,.39-.24.74-.6.89l-5.03,2.18c-9.29,4.03-15.19,13.17-15.04,23.29.05,3.13.67,6.18,1.86,9.06l2.29,5.59c.16.39.06.84-.26,1.12l-4.49,4.05c-5.36,4.83-8.37,11.73-8.26,18.92.17,11.05,7.74,20.8,18.4,23.69,2.14.58,4.34.87,6.54.87,1.97,0,3.95-.24,5.88-.7,2.71-.66,5.27-1.75,7.61-3.25l4.49-2.89c.17-.11.35-.16.54-.16.18,0,.36.05.51.14l4.58,2.75c3.86,2.32,8.29,3.55,12.81,3.55h.39c5.82-.09,11.24-2.12,15.68-5.86l6.1-5.14c.19-.16.42-.24.64-.24Z"/>
    <path class="cls-1" d="M286.38,96.19c15.07,0,28.72,7.75,36.49,20.12,4.94-2.03,10.24-3.12,15.69-3.21.23,0,.46,0,.69,0,21.12,0,38.79,15.09,42.43,35.43,13.54,7.39,22.19,21.47,22.43,37.18.05,3.46-.3,6.89-1.06,10.23,6.96,7.71,10.96,17.73,11.12,28.23.3,19.11-12.25,36.35-30.52,41.93-4.11,1.25-8.38,1.88-12.64,1.88-2.96,0-5.91-.3-8.8-.91-3.22-.67-6.32-1.7-9.28-3.07-5.77,2.9-12.13,4.46-18.65,4.56-.23,0-.46,0-.7,0-7.05,0-13.82-1.67-19.95-4.89-7.23,5.45-15.96,8.46-25.2,8.6-.23,0-.46,0-.7,0-9.19,0-17.9-2.84-25.2-8.13-6.36,3.7-13.62,5.74-21.04,5.86-.23,0-.45,0-.68,0-6.09,0-12.09-1.28-17.6-3.75-2.76,1.34-5.67,2.38-8.68,3.11-3.34.81-6.75,1.21-10.15,1.21-3.81,0-7.62-.5-11.31-1.51-18.43-5.01-31.52-21.85-31.82-40.95-.16-10.5,3.51-20.64,10.23-28.56-.87-3.32-1.33-6.73-1.38-10.19-.24-15.71,7.96-30.06,21.26-37.87,3.03-20.67,20.57-36.42,42-36.76.23,0,.46,0,.69,0,5.21,0,10.3.93,15.09,2.72,7.49-12.8,21.19-21.03,36.53-21.27.23,0,.46,0,.69,0M258.15,142.82l-9.62-6.48c-4.3-2.89-9.29-4.42-14.47-4.42-.14,0-.27,0-.41,0-13.97.22-25.18,11.32-25.54,25.28l-.14,5.48-5.03,2.18c-9.66,4.19-15.8,13.7-15.64,24.23.05,3.25.7,6.42,1.93,9.43l2.29,5.59-4.49,4.05c-5.57,5.03-8.7,12.2-8.59,19.68.18,11.5,8.05,21.63,19.14,24.64,2.23.6,4.51.91,6.81.91,2.04,0,4.1-.24,6.12-.73,2.82-.68,5.49-1.82,7.91-3.38l4.49-2.89,4.58,2.75c4.02,2.42,8.62,3.69,13.33,3.69.14,0,.27,0,.41,0,6.05-.09,11.69-2.2,16.31-6.1l6.1-5.14,5.58,5.7c4.94,5.05,11.51,7.81,18.53,7.81.14,0,.28,0,.42,0,7.01-.11,13.54-2.97,18.38-8.05l5.29-5.55,6.12,4.63c4.55,3.44,9.94,5.26,15.63,5.26.14,0,.28,0,.42,0,5-.08,9.84-1.59,13.99-4.36l4.62-3.09,4.71,2.94c2.59,1.62,5.42,2.75,8.4,3.38,1.74.36,3.51.54,5.29.54,2.57,0,5.14-.38,7.62-1.13,10.99-3.35,18.54-13.73,18.36-25.22-.12-7.48-3.47-14.56-9.2-19.41l-4.61-3.91,2.12-5.66c1.14-3.04,1.69-6.23,1.64-9.48-.16-10.53-6.6-19.84-16.38-23.73l-5.1-2.02-.31-5.48c-.78-13.8-12.11-24.47-25.89-24.47-.14,0-.28,0-.42,0-5.33.08-10.42,1.77-14.74,4.88l-9.41,6.78-3.74-10.98c-3.6-10.56-13.43-17.58-24.56-17.58-.14,0-.28,0-.41,0-11.3.18-21.11,7.55-24.41,18.35l-3.4,11.09M286.38,94.19h0c-.24,0-.48,0-.72,0-15.36.24-29.21,8-37.36,20.84-4.58-1.53-9.35-2.3-14.23-2.3-.24,0-.48,0-.72,0-21.92.34-40.19,16.06-43.8,37.52-13.49,8.3-21.68,23.21-21.43,39.13.05,3.26.45,6.51,1.2,9.66-6.65,8.22-10.21,18.51-10.05,29.09.31,19.99,14,37.62,33.29,42.85,3.85,1.05,7.84,1.58,11.84,1.58,3.57,0,7.14-.43,10.62-1.26,2.84-.69,5.61-1.65,8.25-2.86,5.58,2.36,11.48,3.56,17.57,3.56.24,0,.47,0,.71,0,7.28-.11,14.47-2.01,20.89-5.5,7.45,5.09,16.18,7.77,25.32,7.77.24,0,.48,0,.73,0,9.21-.14,17.94-3,25.35-8.26,6.15,3.02,12.79,4.55,19.76,4.55.24,0,.48,0,.73,0,6.53-.1,12.8-1.57,18.65-4.35,2.83,1.24,5.8,2.19,8.84,2.82,3.01.63,6.11.95,9.21.95,4.5,0,8.95-.66,13.23-1.97,19.12-5.84,32.25-23.88,31.94-43.87-.16-10.58-4.05-20.76-10.95-28.76.65-3.18.95-6.43.9-9.69-.25-15.92-8.9-30.56-22.64-38.44-4.21-21-22.66-36.14-44.22-36.14-.24,0-.48,0-.72,0-5.13.08-10.12,1.01-14.87,2.76-8.39-12.35-22.21-19.67-37.28-19.67h0ZM258.15,144.82c.22,0,.45-.04.67-.11.6-.21,1.06-.69,1.24-1.3l3.4-11.09c3.05-9.97,12.11-16.77,22.53-16.94.13,0,.26,0,.38,0,10.25,0,19.36,6.52,22.67,16.23l3.74,10.98c.2.6.68,1.07,1.28,1.26.2.06.4.09.61.09.41,0,.82-.13,1.17-.38l9.41-6.78c3.98-2.87,8.68-4.42,13.6-4.5.13,0,.26,0,.39,0,12.69,0,23.18,9.92,23.9,22.58l.31,5.48c.04.78.54,1.46,1.26,1.75l5.1,2.02c9.04,3.59,14.97,12.18,15.12,21.9.05,3-.46,5.95-1.51,8.75l-2.12,5.66c-.3.79-.06,1.68.58,2.23l4.61,3.91c5.29,4.48,8.38,11.01,8.49,17.91.17,10.61-6.8,20.18-16.94,23.28-2.27.69-4.64,1.05-7.03,1.05-1.65,0-3.29-.17-4.88-.5-2.75-.57-5.36-1.62-7.75-3.12l-4.71-2.94c-.32-.2-.69-.3-1.06-.3-.39,0-.78.11-1.11.34l-4.62,3.09c-3.83,2.56-8.29,3.95-12.91,4.02-.13,0-.26,0-.39,0-5.25,0-10.23-1.68-14.42-4.85l-6.12-4.63c-.36-.27-.78-.41-1.21-.41-.53,0-1.06.21-1.45.62l-5.29,5.55c-4.47,4.69-10.49,7.33-16.96,7.43-.13,0-.26,0-.39,0-6.48,0-12.55-2.56-17.1-7.21l-5.58-5.7c-.39-.4-.91-.6-1.43-.6-.46,0-.91.16-1.29.47l-6.1,5.14c-4.26,3.59-9.47,5.54-15.05,5.63-.13,0-.25,0-.38,0-4.34,0-8.59-1.18-12.3-3.4l-4.58-2.75c-.32-.19-.67-.29-1.03-.29-.38,0-.75.11-1.08.32l-4.49,2.89c-2.24,1.44-4.7,2.49-7.3,3.12-1.85.45-3.75.67-5.65.67-2.12,0-4.23-.28-6.28-.84-10.23-2.78-17.5-12.13-17.66-22.74-.11-6.91,2.78-13.53,7.93-18.17l4.49-4.05c.63-.57.83-1.46.51-2.24l-2.29-5.59c-1.14-2.77-1.74-5.7-1.78-8.7-.15-9.72,5.51-18.49,14.43-22.36l5.03-2.18c.71-.31,1.18-1.01,1.2-1.78l.14-5.48c.32-12.88,10.68-23.13,23.57-23.33.13,0,.25,0,.38,0,4.78,0,9.39,1.41,13.35,4.08l9.62,6.48c.33.23.72.34,1.12.34h0Z"/>
  </g>
  <path class="cls-1" d="M387.79,205.03l-4.61-3.91,2.12-5.66c1.14-3.04,1.69-6.23,1.64-9.48-.16-10.53-6.6-19.84-16.38-23.73l-5.1-2.02-.31-5.48c-.79-13.94-12.34-24.69-26.31-24.47-5.33.08-10.42,1.77-14.74,4.88l-9.41,6.78-3.74-10.98c-3.64-10.69-13.68-17.76-24.98-17.58-11.3.18-21.11,7.55-24.41,18.35l-3.4,11.09-9.62-6.48c-4.41-2.97-9.56-4.5-14.88-4.41-13.97.22-25.18,11.32-25.54,25.28l-.14,5.48-5.03,2.18c-9.66,4.19-15.8,13.7-15.64,24.23.05,3.25.7,6.42,1.93,9.43l2.29,5.59-4.49,4.05c-5.57,5.03-8.7,12.2-8.59,19.68.18,11.5,8.05,21.63,19.14,24.64,4.21,1.14,8.63,1.21,12.92.18,2.82-.68,5.49-1.82,7.91-3.38l4.49-2.89,4.58,2.75c4.14,2.49,8.89,3.76,13.74,3.69,6.05-.09,11.69-2.2,16.31-6.1l6.1-5.14,5.58,5.7c5.04,5.15,11.77,7.92,18.95,7.81,7.01-.11,13.54-2.97,18.38-8.05l5.29-5.55,6.12,4.63c4.66,3.53,10.21,5.34,16.05,5.25,5-.08,9.84-1.59,13.99-4.36l4.62-3.09,4.71,2.94c2.59,1.62,5.42,2.75,8.4,3.38,4.24.89,8.72.69,12.91-.59,10.99-3.35,18.54-13.73,18.36-25.22-.12-7.48-3.47-14.56-9.2-19.41Z"/>
  <rect class="cls-1" x="242.05" y="371.28" width="91.83" height="21.1" rx="1.61" ry="1.61"/>
  <path class="cls-3" d="M352.18,263.46c-5.77,2.89-12.13,4.46-18.65,4.56-7.33.15-14.31-1.56-20.64-4.88-7.23,5.44-15.96,8.45-25.2,8.6-.23,0-.46,0-.7,0-9.19,0-17.91-2.84-25.21-8.13-6.36,3.69-13.62,5.74-21.03,5.85-6.36.09-12.56-1.19-18.28-3.74-.65.32-1.31.61-1.97.89l.81,52.29c.43,27.67,23.24,49.86,50.97,49.41l33.8-.53c13.41-.21,25.93-5.63,35.26-15.25,9.33-9.63,14.36-22.31,14.15-35.72l-.81-52.29c-.85-.33-1.68-.68-2.51-1.07Z"/>
  <path class="cls-2" d="M364.99,249.63c-2.98-.62-5.8-1.76-8.39-3.37l-4.73-2.95-4.63,3.1c-4.15,2.77-8.98,4.28-13.97,4.35-5.89.07-11.38-1.72-16.03-5.24l-6.14-4.65-5.31,5.58c-4.84,5.07-11.35,7.93-18.35,8.04-7.17.05-13.89-2.66-18.92-7.79l-5.6-5.72-6.12,5.16c-4.61,3.89-10.24,5.99-16.28,6.09-4.84.07-9.58-1.2-13.72-3.68l-4.6-2.76-4.51,2.91c-2.42,1.56-5.08,2.7-7.9,3.38l-6.71,1.62,1.02,65.51c.57,36.83,30.72,66.4,67.43,66.4.35,0,.71,0,1.07,0l33.8-.53c18.01-.28,34.84-7.56,47.38-20.5,12.54-12.94,19.29-29.98,19.01-48l-1.02-65.5-6.75-1.41ZM341.36,352.53c-9.33,9.63-21.85,15.04-35.26,15.25l-33.8.53c-27.73.45-50.54-21.73-50.97-49.41l-.81-52.29c.66-.28,1.32-.58,1.97-.89,5.72,2.56,11.92,3.83,18.28,3.74,7.42-.12,14.67-2.16,21.03-5.85,7.3,5.29,16.01,8.13,25.21,8.13.23,0,.46,0,.7,0,9.23-.14,17.96-3.15,25.2-8.6,6.33,3.32,13.3,5.03,20.64,4.88,6.52-.1,12.88-1.66,18.65-4.56.83.38,1.66.74,2.51,1.07l.81,52.29c.21,13.41-4.81,26.09-14.15,35.72Z"/>
</svg>